<svg width="1920" height="414" viewBox="0 0 1920 414" fill="none" xmlns="http://www.w3.org/2000/svg">
<path d="M0 165H20C40 165 80 165 120 181.652C160 197.681 200 231.919 240 223.048C280 214.8 320 165 360 181.652C400 197.681 440 281.719 480 281.252C520 281.719 560 197.681 600 173.248C640 147.881 680 182.119 720 165C760 147.881 800 82.5188 840 82.0519C880 82.5188 920 147.881 960 165C1000 182.119 1040 147.881 1080 115.2C1120 82.5188 1160 48.2813 1200 82.0519C1240 115.2 1280 214.8 1320 206.552C1360 197.681 1400 82.5188 1440 57.1519C1480 32.7188 1520 98.0813 1560 106.952C1600 115.2 1640 65.4 1680 32.2519C1720 -1.51875 1760 -17.0812 1800 32.2519C1840 82.5188 1880 197.681 1900 256.352L1920 314.4V414H1900C1880 414 1840 414 1800 414C1760 414 1720 414 1680 414C1640 414 1600 414 1560 414C1520 414 1480 414 1440 414C1400 414 1360 414 1320 414C1280 414 1240 414 1200 414C1160 414 1120 414 1080 414C1040 414 1000 414 960 414C920 414 880 414 840 414C800 414 760 414 720 414C680 414 640 414 600 414C560 414 520 414 480 414C440 414 400 414 360 414C320 414 280 414 240 414C200 414 160 414 120 414C80 414 40 414 20 414H0V165Z" fill="#CF91FF"/>
</svg>
